<svg id="Layer_1" data-name="Layer 1" xmlns="http://www.w3.org/2000/svg" viewBox="0 0 2000 2000"><defs><style>.cls-1,.cls-2{fill:#050505;}.cls-2{fill-rule:evenodd;}</style></defs><path class="cls-1" d="M860.62,843l-5-3.32-13.42-9a55.06,55.06,0,0,0-27.66-10.28c-15.7-1.39-30.3,2.59-44.25,9.34-7.16,3.47-14,7.57-21.09,11.47-29.33-21.62-58.6-21.21-87.45,1.39-.18-.27-.28-.38-.25-.43a13.53,13.53,0,0,1,.81-1.36c5.69-8.18,8.91-17.32,11.08-27,2.86-12.58,5.6-25.21,9.14-37.64,3.19-11.19,8.33-21.57,16.48-30.23,6.07-6.42,13.72-10.65,21.08-15.26,4.43-2.78,8.69-2.4,13.17.2a36.11,36.11,0,0,0,9.87,4c9.11,2,17.84,0,26.27-3.52,11.09-4.63,22.41-8.2,34.58-8.4a2.86,2.86,0,0,0,2-1.82c.51-1.9.2-3.87-1.64-5-3-1.9-6.16-3.65-8.76-5.17.25-.35.88-1.24,1.54-2.07,1.92-2.51,3.54-5.24,2.18-8.43-3.47-8.15-7.09-16.28-10.81-24.33-1.49-3.21-3.62-6.15-7.06-7.47-4.46-1.67-9-3.26-13.52-4.63a29.24,29.24,0,0,0-14-.4,94.23,94.23,0,0,0-14.3,3.64c-14.6,5.52-29.08,11.34-42.3,19.92-7.77,5-15.67,9.85-20.3,18.38-4.38,8-9.62,15.52-16.38,21.59-9.87,8.86-20.09,17.34-30.52,25.57-13.47,10.66-26.76,21.44-37.62,34.9-15.13,18.76-25,40.18-31.41,63.21-2.08,7.32-4.23,14.4-9.72,19.95-.25.25-.38.63-.61.88-5.29,6.1-5.21,12.31-1.24,19.24,12.3,21.54,31.11,33.34,55.21,36.91,21.06,3.11,41.33,8.17,59.69,19.46,11.44,7,24.15,9.85,37.48,10.33,14.46.53,28.68-1.37,42.78-4.2q11.47-2.28,22.89-4.68c4.32-.89,8.63-1.8,13-2.74a12.1,12.1,0,0,1,5.94,0,8.76,8.76,0,0,1,3.17,1.65l1.14-9.6a18.67,18.67,0,0,0-11-2.25c-3.44.28-6.89.71-10.3,1.27-2.08.33-4.16.71-6.21,1.14-1.67.33-3.31.68-5,1.06-17.74,4.07-35.31,9-53.61,10.15-8.13.51-16.23.35-23.84-2.89-11.24-4.78-22.38-9.79-33.54-14.73-3.37-1.49-6.69-3.11-10-4.68,11.82,2.05,23.59,2.83,35.47,1.34a4.69,4.69,0,0,0-1.5-.48c-4.93-.94-10.15-1.14-14.76-2.94-12.6-4.88-25.61-6.68-39-6.78-10.28-.1-20.43-.94-30.2-4.61-13.42-5-23.9-13.06-29.54-26.75a18.92,18.92,0,0,1,1.57-17.42c3.87-6,7.82-12,12-17.79,3.17-4.38,6.81-8.46,10.23-12.66-.28-.28-.18-.15-.46-.43l-11.59,10.5c1.9-7,4.25-13.82,6.66-20.55,8-22.73,20.93-42,40.14-56.83,7.72-5.94,16.18-11,23.82-17.08,15.14-12,28-26.23,39.77-41.49,4.2-5.47,8-11.49,13.14-15.95a106.08,106.08,0,0,1,53.46-24.88,7.21,7.21,0,0,0,2.73-.94,15,15,0,0,1,10.3-2.12c.79.1,1.6,0,2.38.07,2.56.21,5.14.23,7.65.66s4.81,1.32,7.24,1.87c3.11.69,5.79,2.06,7.31,5,4.2,8,8.4,16,12.43,24.14a5.54,5.54,0,0,1-2.13,7.07c0-1.83.74-4.36-.12-6.05-4.15-8-8.74-15.75-13.17-23.59l-1,.48c.31.71.56,1.41.89,2.1,1.74,3.54,3.52,7.06,5.26,10.6,2.43,5,2.41,5-1.74,8.64,1.92-.13,3.64-.23,5.24-.31,2.05,4.76-.59,13.14-4.84,16.15-2.33,1.65-5.24,1.72-7.06.18,1.11-3.22,2.35-6.41,3.32-9.65,1.56-5.29,1.59-10.53-5-15.08a20.09,20.09,0,0,1-5.57-5.95c1.14,2,2.33,4,3.57,6,1.44,2.33,1,4.23-.69,6.08-.37.43-.7.86-1.44,1.75,2.08-.59,3.6-1,5.37-1.5a13.07,13.07,0,0,1,.71,3A28.7,28.7,0,0,1,773,716c-2.15,3.21-7.39,3.72-9.42,1.62,1.42-3.67,2.84-7.24,4.18-10.83A9.75,9.75,0,0,0,765.67,696c-3.16-3.44-6.35-6.83-9.47-10.3-1.24-1.37-2.32-2.86-3.49-4.28l-1,.89a23.23,23.23,0,0,0,1.37,2.3c2,2.63,4.12,5.22,6.12,7.85,2.36,3.09,2.25,4-.45,6.91-.26.28-.48.58-1,1.21,2.18-.58,3.87-1.06,5.49-1.49,2.18,4.2.18,12.2-4.07,17.11a7.39,7.39,0,0,1-8,2.33c.83-5,1.69-10.1,2.5-14.83-6.33-2.18-9.69-8.33-16.75-8.94,4.12,3.37,7.74,6.31,11.79,9.6-6.93,0-9.36,3.59-6.66,9.44a69.78,69.78,0,0,0,5.27,8.43,3.12,3.12,0,0,0,1.75,1.14c4.45,1.08,8.86,1.72,12.32-2.36,3.93,4.48,11.29,4.25,14.33.23a56.9,56.9,0,0,0,5.8,1.09c4.22.33,6.07-2.84,8-5.82,1.82-2.81,3.85-3.57,7.34-2.71,3.67.93,5.87,3.14,6.15,6.48-1.19.3-2.45.71-3.74.91-13.72,2.18-27.52,4-41.16,6.61-7.47,1.44-14.53,1.08-21.37-1.78a30.26,30.26,0,0,0-19.13-1.72c-4.81,1.07-9.93.86-14.91,1.24,0,.26,0,.21,0,.46,3.17.81,6.33,1.59,9.06,2.28-5.16,5-10.65,10.2-16.09,15.46-1.42,1.37-2.59,3-4.11,4.23-17.49,13.8-30.35,31.19-39.84,51.18-.61,1.24-1.11,2.56-1.64,3.83,9.36-12,18.07-24.51,28.78-35.37-.48,2-1.34,3.75-1.82,5.62-3.3,13.6-6.59,27.19-9.72,40.83-2,8.61-4.21,17-10,24.13-12,14.73-27.32,24.4-44.78,31.13-2.25.86-4.51,1.62-6.78,2.43a54.75,54.75,0,0,0,10.09-1.62c23.24-5.44,45.62-13,64.93-27.62,10.38-7.84,21.85-10.4,34.53-8.5a92.1,92.1,0,0,1,31.54,11.26c6.28,3.52,12.33,7.5,18.88,11.52-1.54-1.8-2.86-3.29-4.48-5.19,3.44-2.68,6.56-5.37,9.92-7.67s7-4.35,10.66-6.33,7.11-3.67,10.68-5.49c-13.06,2.23-24.47,7.92-34.9,16.4l-2.18-2.48a129.26,129.26,0,0,1,25.34-14.78c7.49-3.32,15.19-6.13,23.39-6.91a61.69,61.69,0,0,1,18.5,1.14,73.76,73.76,0,0,1,24.65,10.17l7.37,4.69,5.11,3.19c1.35.83,2.26,1.39,2.46,1.46.28-.32.61-.15.86-.48C862.92,844.5,862,843.9,860.62,843ZM748,718.42c-.2,0-.4.08-.6.1-1.07-2.68-2.31-5.31-3.17-8.07s.18-3.85,3.14-3.29c1.22.2,2.38.63,3.95,1.06C750.08,711.86,749,715.13,748,718.42ZM767.44,678c-.12-.48-.63-.66-1-.94a6.06,6.06,0,0,0,.93,2.74c1.12,2,2.23,3.87,3.37,5.82A29.73,29.73,0,0,1,767.44,678Z"/><path class="cls-1" d="M725.94,720.34c-.18-1.29-.43-2.58-.53-3.88-.24-3.29-1.37-4.33-4.84-4.3-4,0-8.06.22-12.08.08a15.93,15.93,0,0,1-5.33-1.47c12.28,1.79,23.43-2.22,34.67-6.25-4.84,4.51-9.27,9.24-11.17,15.78Z"/><path class="cls-1" d="M745,678.12l-12.57,8.26-.45-.68c3.43-3.87,7.85-6.28,12.55-8.27Z"/><path class="cls-1" d="M1449.17,871.66c-.23-.25-.36-.63-.61-.88-5.52-5.55-7.67-12.63-9.72-19.95-6.43-23-16.28-44.45-31.44-63.21-10.86-13.46-24.12-24.24-37.61-34.9-10.41-8.23-20.63-16.71-30.51-25.57-6.75-6.07-12-13.59-16.37-21.59-4.63-8.53-12.53-13.34-20.33-18.38-13.19-8.58-27.69-14.4-42.27-19.92a94.23,94.23,0,0,0-14.3-3.64,29.37,29.37,0,0,0-14,.4c-4.5,1.37-9,3-13.49,4.63-3.46,1.32-5.59,4.26-7.06,7.47-3.75,8-7.34,16.18-10.83,24.33-1.34,3.19.25,5.92,2.2,8.43.66.83,1.26,1.72,1.54,2.07-2.63,1.52-5.74,3.27-8.78,5.17-1.82,1.14-2.13,3.11-1.62,5a2.87,2.87,0,0,0,2,1.82c12.18.2,23.49,3.77,34.58,8.4,8.46,3.52,17.19,5.47,26.28,3.52a35.61,35.61,0,0,0,9.87-4c4.5-2.6,8.76-3,13.19-.2,7.36,4.61,15,8.84,21.08,15.26,8.15,8.66,13.27,19,16.48,30.23,3.52,12.43,6.28,25.06,9.11,37.64,2.18,9.64,5.42,18.78,11.09,27,.3.43.56.91.84,1.36,0,0-.08.16-.26.43-28.85-22.6-58.12-23-87.48-1.39-7.09-3.9-13.92-8-21.08-11.47-13.93-6.75-28.56-10.73-44.23-9.34a55.67,55.67,0,0,0-20.88,6.1c-.58.31-10.84,4.48-11.42,4.81.43.71,10.48-2.45,10.81-1.74.66-.26,1.32-.48,2-.71,9.62-3.47,19.54-5.39,30-4.43,8.22.78,15.89,3.59,23.41,6.91a129.26,129.26,0,0,1,25.34,14.78l-2.18,2.48c-10.43-8.48-21.84-14.17-34.93-16.4,3.57,1.82,7.19,3.54,10.71,5.49a122,122,0,0,1,10.63,6.33c3.39,2.3,6.51,5,10,7.67l-4.51,5.19c6.58-4,12.61-8,18.91-11.52a92,92,0,0,1,31.52-11.26c12.7-1.9,24.17.66,34.55,8.5,19.31,14.58,41.66,22.18,64.9,27.62a55.13,55.13,0,0,0,10.1,1.62c-2.25-.81-4.53-1.57-6.76-2.43-17.46-6.73-32.85-16.4-44.78-31.13-5.74-7.14-8-15.52-10-24.13-3.14-13.64-6.43-27.23-9.72-40.83-.46-1.87-1.32-3.67-1.82-5.62C1332,778.51,1340.65,791,1350,803c-.55-1.27-1.06-2.59-1.64-3.83-9.49-20-22.35-37.38-39.84-51.18-1.52-1.21-2.69-2.86-4.11-4.23-5.46-5.26-10.93-10.5-16.09-15.46,2.73-.69,5.89-1.5,9.08-2.28-.07-.15-.15-.3-.22-.46-4.92-.38-10-.17-14.76-1.24a30.21,30.21,0,0,0-19.11,1.72c-6.86,2.86-13.9,3.22-21.37,1.78-13.64-2.64-27.44-4.43-41.18-6.61-1.27-.2-2.53-.61-3.75-.91.28-3.34,2.51-5.55,6.18-6.48,3.47-.86,5.52-.1,7.31,2.71,1.9,3,3.75,6.15,8,5.82a58.27,58.27,0,0,0,5.82-1.09c3,4,10.4,4.25,14.3-.23,3.47,4.08,7.9,3.44,12.35,2.36a3.18,3.18,0,0,0,1.73-1.14,64,64,0,0,0,5.26-8.43c2.73-5.85.3-9.47-6.66-9.44,4-3.29,7.7-6.23,11.82-9.6-7.06.61-10.42,6.76-16.78,8.94.81,4.73,1.67,9.79,2.53,14.83a7.42,7.42,0,0,1-8-2.33c-4.23-4.91-6.23-12.91-4.08-17.11,1.65.43,3.32.91,5.52,1.49l-1.06-1.21c-2.68-2.86-2.79-3.82-.46-6.91,2-2.63,4.13-5.22,6.15-7.85a23.23,23.23,0,0,0,1.37-2.3l-1-.89c-1.14,1.42-2.22,2.91-3.47,4.28-3.13,3.47-6.32,6.86-9.49,10.3a9.78,9.78,0,0,0-2.07,10.74c1.34,3.59,2.78,7.16,4.2,10.83-2,2.1-7.29,1.59-9.44-1.62a28.59,28.59,0,0,1-5.22-15,13.07,13.07,0,0,1,.71-3c1.77.51,3.29.91,5.37,1.5-.74-.89-1.07-1.32-1.44-1.75-1.7-1.85-2.16-3.75-.71-6.08,2.4-3.87,4.65-7.87,6.93-11.84a5.53,5.53,0,0,0,.94-2.74,3.42,3.42,0,0,0-.89.69c-4.27,5.77-8.45,11.59-12.75,17.34-2.74,3.64-2.43,7.59-1.27,11.56,1,3.24,2.2,6.43,3.34,9.65-1.82,1.54-4.73,1.47-7.06-.18-4.25-3-6.89-11.39-4.84-16.15,1.6.08,3.32.18,5.22.31-4.13-3.68-4.15-3.68-1.72-8.64,1.72-3.54,3.52-7.06,5.26-10.6.33-.69.58-1.39.86-2.1l-.93-.48c-4.43,7.84-9,15.59-13.17,23.59-.88,1.69-.12,4.22-.12,6.05a5.54,5.54,0,0,1-2.15-7.07c4-8.1,8.22-16.12,12.42-24.14,1.55-2.91,4.21-4.28,7.34-5,2.43-.55,4.79-1.46,7.24-1.87s5.09-.45,7.65-.66c.78-.05,1.57,0,2.35-.07a15.15,15.15,0,0,1,10.33,2.12,7.21,7.21,0,0,0,2.73.94,106.19,106.19,0,0,1,53.46,24.88c5.14,4.46,8.91,10.48,13.14,15.95,11.77,15.26,24.61,29.51,39.74,41.49,7.67,6.07,16.1,11.14,23.85,17.08,19.21,14.79,32.09,34.1,40.14,56.83,2.38,6.73,4.74,13.52,6.66,20.55-3.87-3.49-7.74-7-11.59-10.5l-.46.46c3.42,4.2,7,8.25,10.2,12.63,4.46,6.2,8.66,12.55,12.76,19,3.37,5.26,3.11,10.68.71,16.42-5.65,13.6-16.1,21.57-29.44,26.58-9.77,3.67-19.95,4.51-30.2,4.61-13.41.1-26.4,1.9-39,6.78-4.58,1.8-9.8,2-14.73,2.94a4.69,4.69,0,0,0-1.5.48c11.88,1.49,23.65.71,35.47-1.34-3.34,1.57-6.66,3.19-10,4.68-11.16,4.94-22.28,9.95-33.52,14.73-7.61,3.24-15.71,3.4-23.84,2.89-18.3-1.14-35.87-6.08-53.61-10.15-4.84-1.11-9.72-2-14.63-2.71-2.21-.3-4.38-.56-6.58-.73l-.26,0a20.44,20.44,0,0,0-7.29.68,18.55,18.55,0,0,1,3.24,6.48l11,4.61q14.09,3,28.17,5.8c4,.81,8.1,1.54,12.18,2.15,2.4.38,4.83.71,7.24,1A153.13,153.13,0,0,0,1298,957.6c13.31-.48,26-3.29,37.46-10.33,18.38-11.29,38.65-16.35,59.69-19.46,24.12-3.57,42.9-15.37,55.23-36.91C1454.36,884,1454.46,877.76,1449.17,871.66ZM1248.74,708.22a40.64,40.64,0,0,1,4-1.06c2.94-.56,4,.48,3.14,3.29s-2.1,5.39-3.17,8.07l-.6-.1C1251,715.13,1249.93,711.86,1248.74,708.22Z"/><path class="cls-1" d="M1274.06,720.34c.18-1.29.43-2.58.53-3.88.24-3.29,1.37-4.33,4.84-4.3,4,0,8.06.22,12.08.08a15.87,15.87,0,0,0,5.33-1.47c-12.28,1.79-23.43-2.22-34.66-6.25,4.83,4.51,9.26,9.24,11.17,15.78Z"/><path class="cls-1" d="M1255,678.12l12.57,8.26.45-.68c-3.43-3.87-7.85-6.28-12.55-8.27Z"/><path class="cls-2" d="M1359.74,1065.64s-14.89-1.7-40.71-3.57c-5.36-.38-11.18-.79-17.46-1-4.35-.15-8.94-.25-13.7-.3l-580.54.3c-.41,0-.84,0-1.27.05-7.47.21-14.45.56-20.93.94-32.86,1.85-52.35,3.55-52.35,3.55a.67.67,0,0,0,0,1.34s12.81,1.11,35.16,2.53c5.21.33,35.89,3.34,51.31,6.81,12.73,2.88,42,11.49,59.18,21.77,8.45,5.06,15.19,12.15,21.49,18.22,3.09,3,6,5.9,8.66,8.58,2.07,2.08,4,3.95,5.89,5.72,1.42,1.37,2.74,2.61,4,3.77,6.48,5.95,10.25,9.57,10.25,9.57a.23.23,0,0,0,.33.08.26.26,0,0,0,.1-.33,80.21,80.21,0,0,0-4.71-10.94,102.69,102.69,0,0,0-6-10.25c-1.24-1.87-2.66-3.77-4.18-5.72s-3-3.59-4.6-5.41a162.08,162.08,0,0,0-15.24-15c-3-2.58-6.1-5.11-9.39-7.51,8.17,2,16.25,4.25,24.09,6.73,10.38,3.24,19.77,6.76,28.28,10.2,6.68,2.68,12.78,5.39,18.4,8,4,1.85,7.82,3.62,11.34,5.32,4.15,2,7.87,3.87,11.27,5.62,14.58,7.54,21.84,12.86,21.84,12.86a.27.27,0,0,0,.35,0,.25.25,0,0,0,0-.36s-5.72-7.29-18.91-17.59c-3.09-2.43-6.58-4.93-10.55-7.54-3.37-2.2-7-4.46-11.07-6.71q-8.34-4.66-18.55-9.21-13-5.82-29-11.12a419.75,419.75,0,0,0-41-10.93c11.29,1.27,26.07,3.19,42.53,6.07,19.84,3.5,42.09,8.33,63.51,15.17,12.58,3.87,23.66,8.07,33.54,12,8.17,3.21,15.46,6.3,21.89,9.16,7.06,3.14,13,5.92,18,8.4a186.74,186.74,0,0,1,17.49,9.7.25.25,0,0,0,.33-.38s-5.9-6.74-19.39-16.38a202.87,202.87,0,0,0-21.62-13.42c-4.18-2.27-8.76-4.5-13.69-6.73q-14.55-6.57-33.16-12.81c-4.63-1.52-9.29-2.93-13.95-4.27,20.91,3.46,43.72,8.25,64.62,14.9,12.56,3.85,23.77,7.9,33.8,11.47q12.48,4.44,22.4,8.13c7.24,2.7,13.41,5.06,18.58,7.11,12.25,4.88,18.4,7.85,18.4,7.85a.25.25,0,0,0,.35-.08.26.26,0,0,0-.07-.35s-8-6.84-25.26-16.74c-5.14-3-11.09-6.1-17.9-9.36-4.28-2-8.88-4.13-13.85-6.2-9.74-4-20.83-8.08-33.1-12.23-.41-.13-.82-.25-1.25-.4a414.54,414.54,0,0,1,42.4,10.85c11.29,3.52,21.95,7.19,31.9,10.66,7.9,2.76,15.29,5.49,22.17,8,5.29,1.87,10.25,3.59,14.86,5.21l18.61,6.59c11.87,4.25,18.57,6.75,18.57,6.75a.26.26,0,0,0,.36-.1.25.25,0,0,0-.13-.33s-8.68-5.94-24.45-14.45c-7.11-3.85-15.62-8.15-25.44-12.58-8-3.59-16.81-7.14-26.27-10.73-6.94-2.64-14.23-5.22-21.85-7.8,12.25,2.56,24.55,5.49,36.33,8.91,13.13,3.75,25.36,7.52,36.6,11.11,5.92,1.9,11.57,3.8,17,5.52l25.49,8.28c8.22,2.68,15.34,4.93,21.31,6.91,13.82,4.53,21.26,7.19,21.26,7.19a.3.3,0,0,0,.36-.13.25.25,0,0,0-.13-.33s-9.77-6.17-28.32-15.39c-3.57-1.74-7.45-3.59-11.67-5.49-5.42-2.43-11.34-5-17.8-7.57-7.39-2.94-15.46-5.9-24.15-8.93-11.26-3.93-23.56-7.85-36.78-11.83-17-5-35.18-9.18-52.62-12.5,11,.84,35.26,3,63.33,7.54,21.87,3.55,46.07,8.51,68.14,15.6,12.36,3.87,24.43,8.25,35.92,12.7,5.7,2.2,11.22,4.46,16.58,6.61,8.89,3.54,17.21,7,24.83,10.07,7.8,3.22,14.79,6,20.74,8.51,13,5.37,20.75,8.73,20.75,8.73a.24.24,0,1,0,.23-.43s-10.2-7.36-27.16-17.44c-3.47-2-7.22-4.18-11.21-6.35-5.35-2.91-11.09-5.9-17.24-8.89-7.39-3.57-15.34-7.09-23.59-10.53-11.6-4.86-23.9-9.44-36.43-13.59a443.53,443.53,0,0,0-47.92-12.35c12.46.86,34.1,2.71,58.63,6.65,21.84,3.5,46,8.61,67.86,16.25a382.5,382.5,0,0,1,46.75,19.82c6,3,11.62,5.93,17,8.76,6.07,3.22,11.72,6.26,16.86,9.14,4.93,2.79,9.39,5.34,13.34,7.67,12.5,7.37,19.69,12.25,19.69,12.25a.25.25,0,1,0,.33-.38,247.78,247.78,0,0,0-24.4-21.46c-3.19-2.51-6.66-5.09-10.46-7.75-5-3.52-10.45-7.11-16.37-10.71-7-4.25-14.71-8.42-22.91-12.5a321.08,321.08,0,0,0-71.54-25.64c10.38,1.39,23.49,3.42,38.13,6.22a538.49,538.49,0,0,1,60.92,15.12c7.9,2.4,15.39,5.26,22.58,8.2,5.12,2.07,10,4.2,14.81,6.33,6.48,2.88,12.58,5.74,18.35,8.6,6.63,3.27,12.73,6.28,18.25,9.39a.24.24,0,0,0,.33,0,.22.22,0,0,0,0-.35c-4.71-4.33-9.82-8.91-15.74-13.47a188.82,188.82,0,0,0-17.19-11.72q-6.94-4.17-14.71-7.9a218.58,218.58,0,0,0-23.31-9.34,519.62,519.62,0,0,0-50.93-13.74l6.48,0a3.51,3.51,0,0,0,.56,0,388.48,388.48,0,0,1,53.23,6c10.3,1.88,21.49,4.33,33,7.37,4.61,1.21,9.26,2.53,14,3.85,3.08.86,6.2,1.67,9.36,2.5,2.1.56,4.18,1.09,6.3,1.62,5.4,1.35,10.61,2.56,16,4.18a.24.24,0,1,0,.23-.43c-3.8-2.84-7.44-5.52-11.44-8a121.09,121.09,0,0,0-12.25-6.64c-3.37-1.62-6.81-3-10.26-4.27-5.29-2-13.41-6.1,9.29-7.72,25.82-1.85,40.71-3.57,40.71-3.57a.67.67,0,0,0,0-1.34Z"/><polygon class="cls-2" points="1012.07 786.26 957.29 853.87 935.14 862.8 984.32 799.35 1012.07 786.26"/><polygon class="cls-2" points="969.29 806.43 921.24 868.37 895.8 878.62 938.68 820.86 969.29 806.43"/><polygon class="cls-2" points="924.23 827.67 882.41 884.04 868.32 889.71 910.44 834.17 924.23 827.67"/><path class="cls-2" d="M805.64,1034.42l-.91,11.83c-3.8,0-7.54,0-11.24,0l-.94-.08a4.38,4.38,0,0,0-1.14.08,48.62,48.62,0,0,1-9.44-1.09c-3.11-1-2.65-2.53-1.39-3.59a20.05,20.05,0,0,1,5.85-3.22c1.49-.58,6.81-1.84,6.81-1.84Z"/><path class="cls-2" d="M1267.3,1040.2v6.07c-18.43-.13-39.32,0-62,0-1-.06-1.6-.06-1.6-.06a5.78,5.78,0,0,0-.73,0h-2.51c-25-.08-52-.08-80.29-.08a3.69,3.69,0,0,0,.43-.53,3.82,3.82,0,0,0,.66-2.07V1038Z"/><path class="cls-2" d="M1017.33,1046.14c-66.9,0-135-.05-195,0l-6.3,0,1-12.83,199.39,3-.2,7a3.47,3.47,0,0,0,.4,1.82A3.09,3.09,0,0,0,1017.33,1046.14Z"/><polygon class="cls-2" points="1064.67 980.31 1063.35 1029.74 1049.25 1004.58 1064.67 980.31"/><polygon class="cls-2" points="1062.13 970.21 1045.05 997.11 1029.1 968.66 1062.13 970.21"/><polygon class="cls-2" points="1040.47 1004.35 1024.22 1029.87 1025.86 978.26 1040.47 1004.35"/><polygon class="cls-2" points="1060.29 1039.74 1026.9 1039.74 1044.64 1011.79 1060.29 1039.74"/><polygon class="cls-2" points="1110.86 1039.74 1077.05 1039.74 1094.56 1012.12 1110.86 1039.74"/><polygon class="cls-2" points="1090.28 1004.86 1074.34 1029.97 1075.68 980.13 1090.28 1004.86"/><polygon class="cls-2" points="1110.81 972.48 1094.81 997.7 1079.04 970.99 1110.81 972.48"/><polygon class="cls-2" points="1113.82 981.83 1113.7 1029.74 1099.09 1004.99 1113.82 981.83"/><path class="cls-2" d="M1096.48,884.07l-53.08-6a3.88,3.88,0,0,0-1.77.23l-.12,0a3.61,3.61,0,0,0-1.52,1.17,3.88,3.88,0,0,0-.79,1.72c0,.2,0,.4,0,.6l-1.42,62.83a2.82,2.82,0,0,0,0,.41,3.59,3.59,0,0,0,.76,2,2.88,2.88,0,0,0,.91.86,3.63,3.63,0,0,0,1.27.55,2.18,2.18,0,0,0,.71.1l54.35,2.46a4.41,4.41,0,0,0,1.59-.25l.13-.05a4.13,4.13,0,0,0,1.49-1.17v0a3.85,3.85,0,0,0,.73-1.75,3.6,3.6,0,0,0,.06-.61l.07-59.41A3.75,3.75,0,0,0,1096.48,884.07Zm-6.07,6.91-7,15.34-6.84-16.89Zm-27.16-3-7.54,16.58-7-18.2Zm-17,13.11,5.06,13.11-5.64,12.36Zm1,40.27,7.84-17.28,6.94,18Zm17-14.63-4.76-12.3,5.19-11.44Zm9.9-23.23,5,12.35-5.47,12.07Zm1.14,39.13,7.77-17.14,7.21,17.82Zm17-14.56-4.89-12,4.91-10.84Z"/><path class="cls-1" d="M1285.65,961.17h0l-8.1-3.42-.71-.3-2.17-.91L1227,936.59l-40.48-16.93,0-16.58c1.37-.28,3.42-.71,5.32-1.29,3.62-1.09,6-2.94,7-5.55,1.47-3.74-.5-7.09-1.69-9.09L1135.24,780a9.53,9.53,0,0,0-1.67-2.16l-44.91-47a8.78,8.78,0,0,0-1.41-1.34,11,11,0,0,0-5.62-2.15,11.82,11.82,0,0,0-3.5.25,4.18,4.18,0,0,0-.71.23,12.13,12.13,0,0,0-1.41.56l-62.93,30.3a37.33,37.33,0,0,0-3.47-4.64L988,727.76a10.82,10.82,0,0,0-8-3.92l-6.15-.13a10.64,10.64,0,0,0-7.57,2.94L940,751.5c-3.85,3.62-9.67,9.09-7,14.48,1.47,3,4.56,4,8.23,4.13l-2.73,24.53-56.93,27.41a12.41,12.41,0,0,0-1.29.71l-.28.15-24.25,16.73-1,.74-21.41,14.78a11.22,11.22,0,0,0-2.08,1.82l-62.24,71a71.63,71.63,0,0,0-4.71,5.88,5.12,5.12,0,0,0-.79,4.33,5.22,5.22,0,0,0,.56,1.26,5.09,5.09,0,0,0,5.09,2.38c2-.3,7.06-1.06,11.34-1.64l-.46,3.79-12.27,4.69L704,973c-5.37,2-5.62,9.39-5.42,18.07,0,.61,0,1.09,0,1.29a8,8,0,0,0,3.11,7,8.19,8.19,0,0,0,2.84,1.34l-2.81,65.16a5.06,5.06,0,0,0,1.41,3.72,5,5,0,0,0,3.65,1.57l573.71-.94a5.07,5.07,0,0,0,5.07-5.06V989a7.55,7.55,0,0,0,2.63-1.14c2.38-1.62,3.59-4.32,3.59-8.07v-6.53C1291.77,967.73,1291.77,963.75,1285.65,961.17Zm-4,17.16a5.13,5.13,0,0,0-4,.76,5.06,5.06,0,0,0-2.23,4.18v76.85l-563.36.93,2.81-65.35a5,5,0,0,0-5.06-5.29,6.3,6.3,0,0,0-1.14.12,42.2,42.2,0,0,1,.33-8.63l77.43-29.51a5.09,5.09,0,0,0,3.24-4.23l.05-.48,1.14-9.6.35-3.06a5.07,5.07,0,0,0-1.39-4.12,4.91,4.91,0,0,0-4.05-1.52c-1,.07-2.89.3-5.14.6l58-66.19a2.05,2.05,0,0,1,.38-.33l46.5-32.09,59.82-28.84a5.05,5.05,0,0,0,2.83-4l3.75-33.36a5,5,0,0,0-1.5-4.17,5.09,5.09,0,0,0-4.25-1.4,10.26,10.26,0,0,1,.74-.73L973.21,734a.52.52,0,0,1,.43-.15l6.08.12a.65.65,0,0,1,.48.23l21.11,25.72.53.6c.15.18.35.44.58.74a4.91,4.91,0,0,0-2.83,1.16,5.08,5.08,0,0,0-1.83,3.57l-.17,3a5.08,5.08,0,0,0,2.25,4.51,5,5,0,0,0,5,.35l75.49-36.35.3-.13h.1a.91.91,0,0,1,.33.13l.15.15L1126.46,785,1188,891.74l.3.5c-1.74.51-3.64.86-4.6,1l-.53.13c-.92.15-1.67.28-2.31.35a5.08,5.08,0,0,0-4.55,5.06l.07,24.2a5,5,0,0,0,3.12,4.66L1216.06,943l11,4.61,45.84,19.19.25.1s.08,0,.1.05h0a.27.27,0,0,0,.16.08l8.15,3.44c.05.86.05,2.07.05,2.76Z"/><path class="cls-1" d="M1678.39,1230.26a53,53,0,0,0-22.31,4.92v29.15c1.3.62,2.63,1.2,4,1.7-.08-.45-.17-.91-.23-1.37a20.79,20.79,0,0,1-.18-2.09,13.26,13.26,0,0,1,.07-2.17,12.87,12.87,0,0,1,1.23,1.78,20.69,20.69,0,0,1,1,1.86,26,26,0,0,1,1.18,3,52.65,52.65,0,0,0,5.47,1.36c-.14-.28-.27-.56-.4-.85-.27-.64-.53-1.29-.74-2a13,13,0,0,1-.52-2.11,13.47,13.47,0,0,1,1.67,1.38,20.71,20.71,0,0,1,1.44,1.53A23.71,23.71,0,0,1,1672,1269c1.5.18,3,.3,4.53.35.5-.71,1-1.41,1.61-2.08a20.85,20.85,0,0,1,1.45-1.53,14.13,14.13,0,0,1,1.66-1.38,13,13,0,0,1-.51,2.11c-.22.67-.47,1.32-.75,2-.14.32-.28.64-.43.95a52.19,52.19,0,0,0,6.86-.6,25.16,25.16,0,0,1,1.78-2.33c.46-.53.93-1,1.44-1.53a13.58,13.58,0,0,1,1.68-1.38,14.14,14.14,0,0,1-.52,2.11c-.22.67-.47,1.32-.75,2l-.24.52q2.61-.58,5.14-1.42a23.77,23.77,0,0,1,1-2.64,20.58,20.58,0,0,1,1-1.86,12.87,12.87,0,0,1,1.23-1.78,13.29,13.29,0,0,1,.08,2.17c0,.7-.1,1.4-.19,2.09,0,.3-.09.61-.14.91a53.77,53.77,0,0,0,5.79-2.75c0-.9.08-1.8.2-2.7.09-.69.21-1.37.37-2.06a13,13,0,0,1,.63-2.08,13.87,13.87,0,0,1,.73,2,19.33,19.33,0,0,1,.45,2c.07.41.13.82.19,1.23a53.9,53.9,0,0,0,6.79-5.09,24.9,24.9,0,0,1,.09-2.73,18.9,18.9,0,0,1,.29-2.08,12.66,12.66,0,0,1,.55-2.09,13.63,13.63,0,0,1,.81,2c.21.67.38,1.35.53,2l.12.61a51.42,51.42,0,0,0,4-4.48A53.27,53.27,0,0,0,1678.39,1230.26Z"/><path class="cls-1" d="M1715.45,1313.33l-.12.61c-.15.68-.32,1.36-.53,2a13.63,13.63,0,0,1-.81,2,12.66,12.66,0,0,1-.55-2.09,18.9,18.9,0,0,1-.29-2.08c-.08-.91-.11-1.82-.1-2.73a52.5,52.5,0,0,0-6.79-5.09q-.08.62-.18,1.23a19.33,19.33,0,0,1-.45,2,14.29,14.29,0,0,1-.73,2,12.68,12.68,0,0,1-.63-2.08c-.16-.68-.28-1.38-.37-2.06-.11-.9-.17-1.8-.2-2.69a52,52,0,0,0-5.79-2.76c0,.3.1.61.14.91.09.69.16,1.39.19,2.09a14.51,14.51,0,0,1-.08,2.17,12.05,12.05,0,0,1-1.23-1.78c-.36-.62-.68-1.23-1-1.86a23,23,0,0,1-1-2.64q-2.54-.84-5.14-1.42l.24.52c.28.64.53,1.29.75,2a14.14,14.14,0,0,1,.52,2.11,13.42,13.42,0,0,1-1.68-1.38c-.51-.49-1-1-1.44-1.53a25.16,25.16,0,0,1-1.78-2.33,52.19,52.19,0,0,0-6.87-.6c.16.32.3.63.44,1,.28.64.53,1.29.75,2a13,13,0,0,1,.51,2.11,15.12,15.12,0,0,1-1.67-1.38c-.51-.49-1-1-1.44-1.53a24.59,24.59,0,0,1-1.61-2.08q-2.28.08-4.53.36a26.13,26.13,0,0,1-1.93,2.54,20.71,20.71,0,0,1-1.44,1.53,13.32,13.32,0,0,1-1.67,1.38,12.05,12.05,0,0,1,.52-2.11c.21-.67.47-1.32.74-2l.39-.85a53.11,53.11,0,0,0-5.46,1.36,26,26,0,0,1-1.18,3c-.3.63-.61,1.24-1,1.86a12.87,12.87,0,0,1-1.23,1.78,12.24,12.24,0,0,1-.07-2.17,20.79,20.79,0,0,1,.18-2.09c.06-.46.15-.92.23-1.37-1.35.5-2.68,1.08-4,1.7v29.15a53.89,53.89,0,0,0,6.75,2.62c.43.13.86.26,1.29.37,1,.29,2.06.54,3.1.76l.63.13.74.14.73.13.74.13.74.11.39,0,.4,0c.77.1,1.56.18,2.34.25l.63.05.76,0c.15,0,.31,0,.47,0l.53,0c.69,0,1.38,0,2.07,0s1.38,0,2.06,0l.57,0,.44,0,.76,0,.56-.05c.58,0,1.16-.1,1.74-.17l1.18-.14.28,0,.74-.11c.88-.14,1.76-.3,2.63-.49l.45-.09c.92-.2,1.83-.42,2.73-.67l.71-.2.69-.21.33-.1.63-.2.62-.2,1.32-.47.58-.22.68-.26.67-.27.67-.29.66-.29c.23-.09.45-.19.67-.3l.65-.3.61-.3c.42-.21.84-.42,1.24-.64l.58-.3c.47-.26.94-.52,1.4-.8.21-.11.41-.23.62-.36,1-.62,2-1.27,3-2l.59-.42c.2-.14.39-.27.58-.42l.57-.43.57-.43.56-.45.56-.45.53-.44.44-.37c.76-.66,1.51-1.35,2.24-2.06l.44-.43.18-.17c.45-.46.9-.92,1.33-1.39l.54-.58c.31-.35.63-.71.94-1.08l.47-.54A53.12,53.12,0,0,0,1715.45,1313.33Z"/><path class="cls-1" d="M1731.77,1283h0c0-.22,0-.44,0-.65s0-.38,0-.56c0-.39,0-.78,0-1.16a1.09,1.09,0,0,1,0-.18c0-.49-.07-1-.11-1.47,0-.06,0-.12,0-.17a53,53,0,0,0-9.88-26.41,55.38,55.38,0,0,1-3.77,4.17l.77.15c.68.15,1.35.32,2,.54a13,13,0,0,1,2,.81,12.72,12.72,0,0,1-2.1.54c-.7.14-1.39.22-2.08.29a30.88,30.88,0,0,1-3.19.07,55.77,55.77,0,0,1-6,4.62c.66.17,1.32.37,2,.6a14,14,0,0,1,2,.89,12.79,12.79,0,0,1-2.12.46c-.7.11-1.4.16-2.09.2a27.88,27.88,0,0,1-3.17,0,56.85,56.85,0,0,1-6.23,3l.38.24c.59.37,1.17.76,1.73,1.19a13.6,13.6,0,0,1,1.61,1.44,12.64,12.64,0,0,1-2.15-.19c-.71-.12-1.38-.27-2.06-.45a29,29,0,0,1-2.9-1,56.53,56.53,0,0,1-6.06,1.68c.19.19.37.39.55.59a20.94,20.94,0,0,1,1.34,1.62,13.91,13.91,0,0,1,1.16,1.83,12.82,12.82,0,0,1-2-.78c-.64-.3-1.26-.64-1.86-1a23.94,23.94,0,0,1-2.45-1.66,54.59,54.59,0,0,1-6.4.62l.17.18c.47.52.91,1,1.34,1.62a14.6,14.6,0,0,1,1.16,1.83,12.82,12.82,0,0,1-2-.78c-.64-.3-1.26-.63-1.86-1a31.56,31.56,0,0,1-2.71-1.85c-1.87-.07-3.74-.22-5.59-.47a26.21,26.21,0,0,1-2.23,1.49c-.6.35-1.21.69-1.85,1a13.21,13.21,0,0,1-2,.78,12.1,12.1,0,0,1,1.16-1.83c.42-.57.87-1.1,1.33-1.62l.33-.35a56.13,56.13,0,0,1-6.66-1.73c-.78.29-1.58.55-2.39.77s-1.35.33-2,.45c-.19,0-.39,0-.57,0v24.41c.18,0,.38,0,.57.05.7.12,1.38.27,2,.45s1.61.48,2.39.77a56.48,56.48,0,0,1,6.65-1.73c-.1-.12-.21-.23-.32-.35-.46-.52-.91-1-1.33-1.62a12.94,12.94,0,0,1-1.16-1.83,14.33,14.33,0,0,1,2,.78c.64.3,1.25.64,1.85,1a24.71,24.71,0,0,1,2.23,1.49c1.85-.25,3.71-.4,5.59-.47a31.56,31.56,0,0,1,2.71-1.85c.6-.35,1.22-.68,1.86-1a12.82,12.82,0,0,1,2-.78,14.6,14.6,0,0,1-1.16,1.83c-.43.57-.87,1.11-1.34,1.62l-.17.18a56.82,56.82,0,0,1,6.4.62,23.94,23.94,0,0,1,2.45-1.66c.6-.35,1.22-.69,1.86-1a13.88,13.88,0,0,1,2-.78,12.94,12.94,0,0,1-1.16,1.83,20.94,20.94,0,0,1-1.34,1.62c-.18.2-.36.4-.55.59a56.53,56.53,0,0,1,6.06,1.68,29,29,0,0,1,2.9-1c.68-.18,1.36-.33,2.06-.45a13.64,13.64,0,0,1,2.15-.19,13.6,13.6,0,0,1-1.61,1.44c-.56.43-1.14.82-1.73,1.19l-.38.24a55.16,55.16,0,0,1,6.23,3,23.94,23.94,0,0,1,3.17,0,18.65,18.65,0,0,1,2.09.19,12.79,12.79,0,0,1,2.12.46,13.27,13.27,0,0,1-2,.89c-.65.23-1.31.43-2,.6a55.77,55.77,0,0,1,6,4.62,28.32,28.32,0,0,1,3.19.08,18.85,18.85,0,0,1,2.08.28,13.8,13.8,0,0,1,2.1.54,13,13,0,0,1-2,.81,21,21,0,0,1-2,.54l-.77.15a55.38,55.38,0,0,1,3.77,4.17h0l.26-.36c.24-.33.47-.67.7-1l.38-.58c.09-.12.17-.24.25-.37s.19-.29.28-.45c.22-.34.43-.68.64-1l.34-.57.18-.32c.22-.37.43-.75.63-1.12l.48-.9c.27-.53.53-1,.79-1.58s.49-1.06.73-1.6h0c.47-1.08.91-2.18,1.31-3.3.1-.27.2-.55.29-.84s.19-.56.28-.84.18-.57.27-.86.17-.57.25-.85.13-.46.2-.69l.27-1.05c.22-.87.41-1.75.59-2.64,0-.3.11-.6.16-.9.15-.86.29-1.72.4-2.59l0-.25.06-.57a1.49,1.49,0,0,0,0-.21c0-.13,0-.27,0-.4l0-.33c0-.06,0-.12,0-.19v-.07a.34.34,0,0,0,0-.1c0-.39.07-.77.09-1.16,0-.1,0-.2,0-.31v-.08a.13.13,0,0,0,0-.06l0-.61a1.21,1.21,0,0,0,0-.19c0-.12,0-.25,0-.37s0-.2,0-.3,0-.29,0-.43h0v0a1.69,1.69,0,0,0,0-.23V1284c0-.12,0-.25,0-.37h0C1731.78,1283.42,1731.77,1283.2,1731.77,1283Z"/><path class="cls-1" d="M414.69,1335.08a10.32,10.32,0,0,1-7.84-3l-58.38-60.49-46.16,45.7H370.8q4.06,0,4.07,4.08V1331q0,4.07-4.07,4.07H271.09a2.62,2.62,0,0,1-2.87-2.56,3.36,3.36,0,0,1,1.21-2.42l94.58-95a8.83,8.83,0,0,1,6.33-2.86h10a9,9,0,0,1,6.64,2.86l93.22,94.73a4.29,4.29,0,0,1,1.2,2.87c0,1.36-1.05,2.41-3.47,2.41Z"/><path class="cls-1" d="M617,1335.08a13.17,13.17,0,0,1-10-4.07l-45.41-46.61c-1.66-1.66-2.56-2.87-2.56-5.58v-4.68c0-2.56,1.2-3.92,3.92-3.92h20.67c9.5,0,14.33-3.77,14.33-10.26s-4.83-10.1-14.33-10.1H550V1331q0,4.07-4.07,4.07H494.2q-4.08,0-4.08-4.07v-94.88c0-2.57,1.36-3.92,4.08-3.92H626c18.25,0,32,10.71,32,26.24,0,17-13.27,26.7-29.41,29.12l41.63,42.68a3.26,3.26,0,0,1,1.06,2.42,2.47,2.47,0,0,1-2.72,2.41Z"/><path class="cls-1" d="M824.7,1335.08q-4.07,0-4.07-4.07v-38.16L778.09,1331a13.58,13.58,0,0,1-9.35,4.07H760a16.18,16.18,0,0,1-10.11-4.07l-47.66-38.16V1331q0,4.07-4.08,4.07h-14q-4.08,0-4.08-4.07v-94.88c0-2.57,1.36-3.92,4.08-3.92h13a14.93,14.93,0,0,1,9.65,3.92l70.75,64,75.57-64a16.21,16.21,0,0,1,10.71-3.92h10.86c2.72,0,4.07,1.35,4.07,3.92V1331c0,2.71-1.35,4.07-4.07,4.07Z"/><path class="cls-1" d="M896.06,1335.08c-2.56,0-3.92-1.36-3.92-4.07v-94.88c0-2.57,1.36-3.92,3.92-3.92H1027c19.91,0,30,9.8,30,25.94,0,12.52-7.69,17.2-11.92,19.31,6.49,2.11,16.14,11.62,16.14,26.7,0,15.24-11.16,30.92-36.8,30.92Zm67.58-47.21c-2.57,0-3.92-1.36-3.92-3.92v-9.81c0-2.56,1.35-3.92,3.92-3.92h24.59c9.95,0,13.12-4.22,13.12-10.26s-3.17-10.1-13.12-10.1h-38v67.42h35.45c11.31,0,16.14-5.28,16.14-14.93,0-9.81-4.83-14.48-16.14-14.48Z"/><path class="cls-1" d="M1202.13,1335.08a10.32,10.32,0,0,1-7.84-3l-58.38-60.49-46.16,45.7h68.49q4.07,0,4.07,4.08V1331q0,4.07-4.07,4.07h-99.71a2.62,2.62,0,0,1-2.87-2.56,3.36,3.36,0,0,1,1.21-2.42l94.58-95a8.83,8.83,0,0,1,6.33-2.86h10a9,9,0,0,1,6.63,2.86l93.23,94.73a4.29,4.29,0,0,1,1.2,2.87c0,1.36-1,2.41-3.47,2.41Z"/><path class="cls-1" d="M1404.42,1335.08a13.17,13.17,0,0,1-10-4.07l-45.41-46.61c-1.66-1.66-2.56-2.87-2.56-5.58v-4.68c0-2.56,1.2-3.92,3.92-3.92h20.66c9.51,0,14.33-3.77,14.33-10.26s-4.82-10.1-14.33-10.1h-33.63V1331q0,4.07-4.08,4.07h-51.74q-4.07,0-4.07-4.07v-94.88c0-2.57,1.36-3.92,4.07-3.92h131.84c18.25,0,32,10.71,32,26.24,0,17-13.27,26.7-29.42,29.12l41.64,42.68a3.25,3.25,0,0,1,1,2.42,2.46,2.46,0,0,1-2.71,2.41Z"/><path class="cls-1" d="M1631.6,1335.08c-6,0-9.66-.6-16.29-3l-120.23-45V1331c0,2.71-1.35,4.07-4.07,4.07h-19.46q-4.07,0-4.07-4.07v-94.88c0-2.57,1.36-3.92,4.07-3.92h18.56c6.64,0,9.65.3,16.14,2.86l112.22,43.3v-42.24c0-2.57,1.36-3.92,4.08-3.92H1642c2.71,0,4.07,1.35,4.07,3.92V1331q0,4.07-4.07,4.07Z"/></svg>